<svg version="1.1" xmlns="http://www.w3.org/2000/svg" xmlns:xlink="http://www.w3.org/1999/xlink" viewBox="0 0 2000 1000" preserveAspectRatio="none">
	<style type="text/css">
		.st0{
			fill:none;
			stroke:#24618E;
			stroke-width:1;
			stroke-miterlimit:10;
			}
	</style>
	<g>
		<line class="st0" x1="0" y1="58.8" x2="2000" y2="58.8"/>
		<line class="st0" x1="0" y1="117.6" x2="2000" y2="117.6"/>
		<line class="st0" x1="0" y1="176.5" x2="2000" y2="176.5"/>
		<line class="st0" x1="0" y1="235.3" x2="2000" y2="235.3"/>
		<line class="st0" x1="0" y1="294.1" x2="2000" y2="294.1"/>
		<line class="st0" x1="0" y1="352.9" x2="2000" y2="352.9"/>
		<line class="st0" x1="0" y1="411.8" x2="2000" y2="411.8"/>
		<line class="st0" x1="0" y1="470.6" x2="2000" y2="470.6"/>
		<line class="st0" x1="0" y1="529.4" x2="2000" y2="529.4"/>
		<line class="st0" x1="0" y1="588.2" x2="2000" y2="588.2"/>
		<line class="st0" x1="0" y1="647.1" x2="2000" y2="647.1"/>
		<line class="st0" x1="0" y1="705.9" x2="2000" y2="705.9"/>
		<line class="st0" x1="0" y1="764.7" x2="2000" y2="764.7"/>
		<line class="st0" x1="0" y1="823.5" x2="2000" y2="823.5"/>
		<line class="st0" x1="0" y1="882.4" x2="2000" y2="882.4"/>
		<line class="st0" x1="0" y1="941.2" x2="2000" y2="941.2"/>
	</g>
	<g>
		<line class="st0" x1="941.2" y1="0" x2="941.2" y2="1000"/>
		<line class="st0" x1="1000" y1="0" x2="1000" y2="1000"/>
		<line class="st0" x1="882.4" y1="0" x2="882.4" y2="1000"/>
		<line class="st0" x1="823.5" y1="0" x2="823.5" y2="1000"/>
		<line class="st0" x1="764.7" y1="0" x2="764.7" y2="1000"/>
		<line class="st0" x1="705.9" y1="0" x2="705.9" y2="1000"/>
		<line class="st0" x1="647.1" y1="0" x2="647.1" y2="1000"/>
		<line class="st0" x1="588.2" y1="0" x2="588.2" y2="1000"/>
		<line class="st0" x1="529.4" y1="0" x2="529.4" y2="1000"/>
		<line class="st0" x1="470.6" y1="0" x2="470.6" y2="1000"/>
		<line class="st0" x1="411.8" y1="0" x2="411.8" y2="1000"/>
		<line class="st0" x1="352.9" y1="0" x2="352.9" y2="1000"/>
		<line class="st0" x1="294.1" y1="0" x2="294.1" y2="1000"/>
		<line class="st0" x1="235.3" y1="0" x2="235.3" y2="1000"/>
		<line class="st0" x1="176.5" y1="0" x2="176.5" y2="1000"/>
		<line class="st0" x1="117.6" y1="0" x2="117.6" y2="1000"/>
		<line class="st0" x1="58.8" y1="0" x2="58.8" y2="1000"/>
		<line class="st0" x1="1941.2" y1="0" x2="1941.2" y2="1000"/>
		<line class="st0" x1="1882.4" y1="0" x2="1882.4" y2="1000"/>
		<line class="st0" x1="1823.5" y1="0" x2="1823.5" y2="1000"/>
		<line class="st0" x1="1764.7" y1="0" x2="1764.7" y2="1000"/>
		<line class="st0" x1="1705.9" y1="0" x2="1705.9" y2="1000"/>
		<line class="st0" x1="1647.1" y1="0" x2="1647.1" y2="1000"/>
		<line class="st0" x1="1588.2" y1="0" x2="1588.2" y2="1000"/>
		<line class="st0" x1="1529.4" y1="0" x2="1529.4" y2="1000"/>
		<line class="st0" x1="1470.6" y1="0" x2="1470.6" y2="1000"/>
		<line class="st0" x1="1411.8" y1="0" x2="1411.8" y2="1000"/>
		<line class="st0" x1="1352.9" y1="0" x2="1352.9" y2="1000"/>
		<line class="st0" x1="1294.1" y1="0" x2="1294.1" y2="1000"/>
		<line class="st0" x1="1235.3" y1="0" x2="1235.3" y2="1000"/>
		<line class="st0" x1="1176.5" y1="0" x2="1176.5" y2="1000"/>
		<line class="st0" x1="1117.6" y1="0" x2="1117.6" y2="1000"/>
		<line class="st0" x1="1058.8" y1="0" x2="1058.8" y2="1000"/>
	</g>
	</svg>
