<svg version="1.1" xmlns="http://www.w3.org/2000/svg" xmlns:xlink="http://www.w3.org/1999/xlink" viewBox="0 0 1002.9 1002.9" style="enable-background:new 0 0 1002.9 1002.9;">
	<style type="text/css">
		.st1{fill:#FFFFFF;}
	</style>
	<path class="st1" d="M931.9,707.2v1.4h-22.7l1,1.4c0,52.2-35.5,94.5-79.4,94.5s-79.4-42.3-79.4-94.5v1.4c-2-2.5-5.8-4.2-9-4.2
		l-231.7,1.4l0,0l1,1.4c0,52.2-35.5,94.5-79.4,94.5S353,762.1,353,710v-1.4h-24.1l1,1.4c0,52.2-35.5,94.5-79.4,94.5
		s-79.4-42.3-79.4-94.5l-1-2.8h-29.8c-5.9,0-10.7-5-10.7-11.1v-72.2c0-6.1,4.8-11.1,10.7-11.1h16c5.9,0,10.7-5,10.7-11.1V468.7
		c0-3.7-1.8-7.2-4.8-9.3l-87.5-53.7c-32.1-16.7-37.4-41.7-29.4-55.6L109.6,230c13.6-25.2,41.3-38.4,68.6-32.8l266,55.3
		c23.3,4.8,44.6,17.2,60.8,35.3l80.6,89.8c2.6,2.9,3.5,6.9,2.4,10.7L537.5,603c0,5.6,10.5,9.7,15.7,9.7h63.2V348.4
		c0-6-1.7-20.2,4-20.4l201.5,1.6c3.6-0.1,7,1.6,9.1,4.6l109.6,158.9c1.3,1.9,2,4.2,2,6.5v90.9c0,6.1,4.8,11.1,10.7,11.1l0,0
		c5.9,0,10.7,5,10.7,11.1v47.2v36.1c0,6.1-11.5,12.5-17.4,12.5h-16"/>
</svg>
