<svg version="1.1" xmlns="http://www.w3.org/2000/svg" xmlns:xlink="http://www.w3.org/1999/xlink" viewBox="0 0 1002.9 1002.9" style="enable-background:new 0 0 1002.9 1002.9;">
	<style type="text/css">
		.st1{fill:#FFFFFF;}
	</style>
	<path class="st1" d="M856.1,377.2c-0.1-54-30-101-74.1-125.6c6.9-16.2,10.7-34,10.7-52.7c-0.2-73.8-60.1-133.4-133.9-133.2
		c-45.1,0.1-85,22.6-109.1,57c-21.2-14.1-46.7-22.2-74-22.2c-46.3,0.1-87,23.7-110.8,59.5c-1.2,0-2.3-0.1-3.5-0.1
		c-1.6,0-3.2,0.1-4.7,0.1c-12.4-3.8-25.5-5.8-39.2-5.7c-73.8,0.2-133.4,60.1-133.2,133.9c0,14.9,2.6,29.3,7.1,42.7
		c-25.4,24.4-41.2,58.7-41.1,96.7c0.2,73.8,60.1,133.4,133.9,133.2c30.4-0.1,58.4-10.3,80.8-27.5c12.7,20.2,30.8,36.7,52.2,47.5
		l57,96.7l-38.3,257l143.1-0.4l-38.6-249.6l59-131c13.1,4.2,27,6.5,41.5,6.5c37.4-0.1,71.2-15.6,95.4-40.4
		C804.4,508,856.3,448.7,856.1,377.2z M442.8,590.6c10.6,2.7,21.7,4.2,33.2,4.2c3.6,0,7.1-0.2,10.6-0.5l-5.9,39.4L442.8,590.6z
		 M532.7,635.2l-7.7-50.1c21.2-8.6,39.6-22.7,53.5-40.4c4.6,2.4,9.3,4.5,14.2,6.4L532.7,635.2z"/>
</svg>
