<svg version="1.1" xmlns="http://www.w3.org/2000/svg" xmlns:xlink="http://www.w3.org/1999/xlink" viewBox="0 0 1002.9 1002.9" style="enable-background:new 0 0 1002.9 1002.9;">
	<style type="text/css">
		.st1{fill:#FFFFFF;}
	</style>
	<path class="st1" d="M721.7,306.8c0-15.5-12.5-28-28-28c-1.4,0-2.8,0.1-4.2,0.3c-13.3-68.7-50.6-126-100.4-157.6l-11.6,76.4
		c-1.8,11.6-12.7,19.6-24.3,17.9c-11.6-1.8-19.6-12.7-17.9-24.3l13.5-88.9c-2-12.2-32.2-21.1-49.1-21.1c-16,0-33.6,2.2-46.5,20.3
		l13.8,89.6c1.8,11.6-6.2,22.5-17.8,24.3c-11.6,1.8-22.5-6.2-24.3-17.8l-12-78c-51.1,31.3-89.4,89.3-103,159.2
		c-1.4-0.2-2.8-0.3-4.2-0.3c-15.5,0-28,12.5-28,28c0,15.1,11.9,27.4,26.9,28c0,0,0,0,0,0.1c0,0.4,0,0.7,0,1.1h390.1
		c0-0.4,0-0.7,0-1.1c0,0,0,0,0-0.1C709.8,334.2,721.7,321.9,721.7,306.8z"/>
	<path class="st1" d="M329.7,342.7c-0.9,7.7-1.5,15.6-1.5,23.5c0,100.9,77.3,182.7,172.6,182.7s172.6-81.8,172.6-182.7
		c0-8-0.5-15.8-1.5-23.5H329.7z"/>
	<path class="st1" d="M173.6,806.7c3.2,70.9,129.8,112.1,334,112.1c197.3,0,322.8-51.6,325.1-105.4
		c3.7-89.4-100.9-244.4-329.6-244.4C281.2,569.1,168.5,694.3,173.6,806.7z"/>
</svg>
