<svg version="1.1" xmlns="http://www.w3.org/2000/svg" xmlns:xlink="http://www.w3.org/1999/xlink" viewBox="0 0 1002.9 1002.9" style="enable-background:new 0 0 1002.9 1002.9;">
	<style type="text/css">
		.st1{fill:#FFFFFF;}
	</style>
	<polygon class="st1" points="823.7,227.8 686.2,319.6 802.4,202.3 744,132 656.8,198.1 729.1,114.1 706.6,87.1 461.6,290.9
					712.2,587 957.3,383.2"/>
	<path class="st1" d="M48.9,902.2c69.7,43.6,264.8-42.4,398-264.4l5.4-8.7c31.8-58.3,147,49,147,49l0,0l92.2-74.9l0,0l-250.8-294
			l-27.4,24.5l-64.7,56.5c-1.2,1-1.1,2.9,0.2,3.8c19.1,13.7,78.3,131.6,22.3,157.3l-18.4,7.2C130.6,647,27.2,820.9,52.8,901.7"/>
</svg>
