<!-- Generator: Adobe Illustrator 24.1.0, SVG Export Plug-In  -->
<svg version="1.1" xmlns="http://www.w3.org/2000/svg" xmlns:xlink="http://www.w3.org/1999/xlink" x="0px" y="0px" width="107.9px"
	 height="137px" viewBox="0 0 107.9 137" style="enable-background:new 0 0 107.9 137;" xml:space="preserve">
<style type="text/css">
	.st0{fill:#0093D7;}
	.st1{fill:#24618E;}
</style>
<defs>
</defs>
<g>
	<g>
		<path class="st0" d="M0,134.5l1.5-2.1c1,1.1,2.7,2.2,4.9,2.2c2.2,0,3.1-1.1,3.1-2.1c0-3.2-9-1.2-9-6.9c0-2.6,2.2-4.5,5.6-4.5
			c2.4,0,4.4,0.8,5.8,2.2l-1.5,2c-1.2-1.2-2.9-1.8-4.5-1.8c-1.6,0-2.6,0.8-2.6,1.9c0,2.9,9,1.1,9,6.9c0,2.6-1.8,4.8-6,4.8
			C3.5,137,1.4,136,0,134.5z"/>
		<path class="st0" d="M15.3,136.7v-15.5h10.6v2.4H18v4h7.7v2.4H18v4.3h7.9v2.4H15.3z"/>
		<path class="st0" d="M38,136.7l-3.4-5.8h-2.7v5.8h-2.7v-15.5H36c3.1,0,5.1,2,5.1,4.8c0,2.7-1.8,4.2-3.7,4.5l3.8,6.1H38z
			 M38.3,126.1c0-1.5-1.1-2.4-2.6-2.4h-3.7v4.9h3.7C37.2,128.6,38.3,127.6,38.3,126.1z"/>
		<path class="st0" d="M48.4,136.7l-6.1-15.5h3.1l4.7,12.5l4.7-12.5h3.1l-6.1,15.5H48.4z"/>
		<path class="st0" d="M60.1,136.7v-15.5h2.7v15.5H60.1z"/>
		<path class="st0" d="M65.5,129c0-4.8,3.5-8,8.1-8c3.1,0,5.1,1.6,6.2,3.5l-2.3,1.2c-0.7-1.3-2.2-2.2-3.9-2.2
			c-3.1,0-5.3,2.3-5.3,5.6c0,3.2,2.3,5.6,5.3,5.6c1.6,0,3.2-1,3.9-2.2l2.3,1.2c-1.2,1.9-3.1,3.5-6.2,3.5
			C69.1,137,65.5,133.7,65.5,129z"/>
		<path class="st0" d="M82.4,136.7v-15.5H93v2.4h-7.9v4h7.7v2.4h-7.7v4.3H93v2.4H82.4z"/>
		<path class="st0" d="M94.9,134.5l1.5-2.1c1,1.1,2.7,2.2,4.9,2.2c2.2,0,3.1-1.1,3.1-2.1c0-3.2-9-1.2-9-6.9c0-2.6,2.2-4.5,5.6-4.5
			c2.4,0,4.4,0.8,5.8,2.2l-1.5,2c-1.2-1.2-2.9-1.8-4.5-1.8c-1.6,0-2.6,0.8-2.6,1.9c0,2.9,9,1.1,9,6.9c0,2.6-1.8,4.8-6,4.8
			C98.3,137,96.3,136,94.9,134.5z"/>
	</g>
	<g>
		<path class="st1" d="M0.4,77.1h14.7c8.6,0,13.8,5.1,13.8,12.5v0.1c0,8.3-6.5,12.7-14.6,12.7h-6v10.8H0.4V77.1z M14.6,95.2
			c4,0,6.3-2.4,6.3-5.5v-0.1c0-3.5-2.5-5.5-6.4-5.5H8.3v11H14.6z"/>
		<path class="st1" d="M32,95.2v-0.1c0-10.2,7.7-18.6,18.8-18.6c6.8,0,10.9,2.3,14.2,5.6l-5,5.8c-2.8-2.5-5.6-4.1-9.2-4.1
			c-6.1,0-10.4,5-10.4,11.2v0.1c0,6.2,4.3,11.3,10.4,11.3c4.1,0,6.6-1.6,9.5-4.2l5,5.1c-3.7,4-7.8,6.4-14.8,6.4
			C39.9,113.7,32,105.5,32,95.2z"/>
		<path class="st1" d="M71.9,77.1h8.5l9.5,15.2l9.5-15.2h8.5v36H100V89.6l-10.1,15.4h-0.2l-10-15.2v23.4h-7.8V77.1z"/>
	</g>
	<g>
		<g>
			<polygon class="st1" points="0.3,70.7 0.3,58.3 5.8,56.3 5.9,39.5 11.4,37.7 12.9,38.4 12.9,18.4 19.5,15.8 33.4,19.8 33.4,12.2
				39.2,9.5 41.7,10.9 41.7,4.7 49.4,0.1 49.4,47.3 39.2,44.2 39.2,70.7 			"/>
		</g>
		<g>
			<polygon class="st1" points="55.6,3.3 61.3,5.4 61.3,8.2 55.6,6.5 			"/>
		</g>
		<g>
			<polygon class="st1" points="55.6,9 61.3,10.8 61.3,13.6 55.6,11.9 			"/>
		</g>
		<g>
			<polygon class="st1" points="55.6,14.8 61.3,16.5 61.3,19.4 55.6,17.7 			"/>
		</g>
		<g>
			<polygon class="st1" points="55.6,20.6 61.3,22.3 61.3,24.8 55.6,23.4 			"/>
		</g>
		<g>
			<polygon class="st1" points="55.6,26.3 61.3,27.8 61.3,30.3 55.6,29.1 			"/>
		</g>
		<g>
			<polygon class="st1" points="55.6,32.1 61.3,33.1 61.3,35.7 55.6,34.7 			"/>
		</g>
		<g>
			<polygon class="st1" points="55.6,37.7 61.3,38.6 61.3,41.2 55.6,40.3 			"/>
		</g>
		<g>
			<polygon class="st1" points="55.6,43.5 61.3,44.4 61.3,46.7 55.6,46.2 			"/>
		</g>
		<g>
			<polygon class="st1" points="55.6,49.1 61.3,49.5 61.3,52.2 55.6,51.8 			"/>
		</g>
		<g>
			<polygon class="st1" points="55.6,54.7 61.3,55.1 61.3,57.7 55.6,57.3 			"/>
		</g>
		<g>
			<rect x="55.6" y="60.6" class="st1" width="5.7" height="2.6"/>
		</g>
		<g>
			<polygon class="st1" points="74.2,12.9 67.9,15.3 67.9,27.9 74.2,29.3 74.2,70.7 107.6,70.7 107.6,51.2 103.1,50.2 103.1,41.2
				93,38 91.6,38.4 91.6,35.3 85.7,33.3 85.7,17.5 			"/>
		</g>
	</g>
	<g>
		<polygon class="st0" points="5.8,70.7 0.3,70.7 0.3,58.3 5.8,56.3 		"/>
	</g>
	<g>
		<polygon class="st0" points="11.4,58.2 5.8,56.3 5.9,39.4 11.4,37.7 		"/>
	</g>
	<g>
		<polygon class="st0" points="19.5,41 12.9,38.4 12.9,18.4 19.5,15.8 		"/>
	</g>
	<g>
		<polygon class="st0" points="39.3,70.7 32.5,70.7 32.5,46.5 39.2,44.2 		"/>
	</g>
	<g>
		<polygon class="st0" points="74.2,29.3 67.9,27.9 67.9,15.3 74.2,12.9 		"/>
	</g>
	<g>
		<polygon class="st0" points="93,59.3 88.2,57.9 88.2,39.4 93,38 		"/>
	</g>
	<g>
		<polygon class="st0" points="88.2,70.7 83.6,70.7 83.6,59.4 88.2,57.9 		"/>
	</g>
	<g>
		<polygon class="st0" points="49.4,47.3 41.7,45 41.7,4.7 49.5,0 		"/>
	</g>
	<g>
		<polygon class="st0" points="39.2,37.2 36.1,35.9 36.1,20.5 33.4,19.8 33.4,12.2 39.2,9.5 		"/>
	</g>
</g>
</svg>
